# xmcd
#
# Track frame offsets:
#	150
#	14275
#	27347
#	44942
#	60585
#	76732
#	92857
#	108177
#	123967
#	146730
#	161737
#	176935
#
# Disc length: 2513 seconds
#
# Revision: 0
# Processed by: cddbd v1.4PL0 Copyright (c) Steve Scherf et al.
# Submitted via: audiograbber 1.81.03
#
DISCID=a209cf0c
DTITLE=Sergio Vega - De La Mano Por La Vida
DYEAR=2000
DGENRE=Latin
TTITLE0=Para Que Engañarte
TTITLE1=Locura
TTITLE2=Campos de amapola
TTITLE3=Dolor y Amor
TTITLE4=Sucursal del Cielo
TTITLE5=El Relojito
TTITLE6=Pequeña Linda
TTITLE7=La Celda de Un Loco
TTITLE8=Natalio Molina(El Aguila Real)
TTITLE9=El Primer Paso
TTITLE10=Bachomo
TTITLE11=El Quirofano
EXTD=¡ Viva Mexico Cabrones !
EXTT0=
EXTT1=
EXTT2=
EXTT3=
EXTT4=
EXTT5=
EXTT6=
EXTT7=
EXTT8=
EXTT9=
EXTT10=
EXTT11=
PLAYORDER=
